<svg xmlns="http://www.w3.org/2000/svg" xmlns:xlink="http://www.w3.org/1999/xlink" id="Layer_1" x="0px" y="0px" viewBox="0 0 205.6 29.4" style="enable-background:new 0 0 205.6 29.4;" xml:space="preserve"><style type="text/css">	.st0{fill:#E82126;}	.st1{fill:none;stroke:#E82126;stroke-width:0.25;stroke-miterlimit:10;}	.st2{fill:none;stroke:#E82126;stroke-width:2;stroke-miterlimit:10;}</style><g>	<g>		<path class="st0" d="M-1395.8,191.9c0,0,137,75.4,141.6,133.8c0,12-1.4,72.6-157.9,92.4c57.4-79.3,57.4-79.3,57.4-79.3l25.5,39   c0,0,31.9,5,48.9-31.2c-49.6-68-49.6-68-49.6-68s-30.5-36.8-87.1,41.8c-36.8,58.8-98.4,147.3-98.4,147.3s13.5,9.2,114.7-9.2   c22.7-5.7,22.7-5.7,22.7-5.7s128.2-24.1,153-106.2c0-8.5,9.2-54.5-106.2-122.5C-1348.3,216.4-1395.8,191.9-1395.8,191.9z"></path>		<path class="st0" d="M-1411.3,476.5c0,0,64.2-4.5,117.8-37.1c23.6-13,23.6-13,23.6-13s77.2-44.6,69.9-81.2   c-0.9-3.8-5.4-18.1-26.1-15.6c-1.2-4.7-1.2-4.7-1.2-4.7s55.4-8.5,48.3,33c-5.7,12.7-5.7,12.7-5.7,12.7l-5.9,9c0,0-4.7,5.7-5.7,6.8   c-0.9,1.2-26,29.7-45.3,40.6c30.9,54.1,30.9,54.1,30.9,54.1l-39.2,22.7l-30.7-51.7c0,0-57.6,25.7-85,29c-9.2,1.2-9.2,1.2-9.2,1.2   S-1404.5,483.1-1411.3,476.5z"></path>		<circle class="st0" cx="-1234.1" cy="253.9" r="18.3"></circle>		<path class="st0" d="M-1231.7,200.3v7.1c0,0,46,2.6,44.4,50.3c7.3-0.2,7.3-0.2,7.3-0.2S-1175,206.2-1231.7,200.3z"></path>		<path class="st0" d="M-1231.7,211.8v7c0,0,34.5,0.9,32,39.5c7.4,0.1,7.4,0.1,7.4,0.1S-1188.3,215.2-1231.7,211.8z"></path>		<path class="st0" d="M-1231.7,223.8v6.7c0,0,22.5,0.6,21,27.1c6.7,0.1,6.7,0.1,6.7,0.1S-1197.6,228.4-1231.7,223.8z"></path>	</g>	<text transform="matrix(1 0 0 1 -1117.613 462.0202)" class="st0" style="font-family:'CynthoNext-Bold'; font-size:245px;">IMBD Agency Ltd.</text></g><g>	<g>		<path class="st0" d="M-1395.8,624.9c0,0,137,75.4,141.6,133.8c0,12-1.4,72.6-157.9,92.4c57.4-79.3,57.4-79.3,57.4-79.3l25.5,39   c0,0,31.9,5,48.9-31.2c-49.6-68-49.6-68-49.6-68s-30.5-36.8-87.1,41.8c-36.8,58.8-98.4,147.3-98.4,147.3s13.5,9.2,114.7-9.2   c22.7-5.7,22.7-5.7,22.7-5.7s128.2-24.1,153-106.2c0-8.5,9.2-54.5-106.2-122.5C-1348.3,649.4-1395.8,624.9-1395.8,624.9z"></path>		<path class="st0" d="M-1411.3,909.5c0,0,64.2-4.5,117.8-37.1c23.6-13,23.6-13,23.6-13s77.2-44.6,69.9-81.2   c-0.9-3.8-5.4-18.1-26.1-15.6c-1.2-4.7-1.2-4.7-1.2-4.7s55.4-8.5,48.3,33c-5.7,12.7-5.7,12.7-5.7,12.7l-5.9,9c0,0-4.7,5.7-5.7,6.8   c-0.9,1.2-26,29.7-45.3,40.6c30.9,54.1,30.9,54.1,30.9,54.1l-39.2,22.7l-30.7-51.7c0,0-57.6,25.7-85,29c-9.2,1.2-9.2,1.2-9.2,1.2   S-1404.5,916.1-1411.3,909.5z"></path>		<circle class="st0" cx="-1234.1" cy="686.9" r="18.3"></circle>		<path class="st0" d="M-1231.7,633.3v7.1c0,0,46,2.6,44.4,50.3c7.3-0.2,7.3-0.2,7.3-0.2S-1175,639.2-1231.7,633.3z"></path>		<path class="st0" d="M-1231.7,644.8v7c0,0,34.5,0.9,32,39.5c7.4,0.1,7.4,0.1,7.4,0.1S-1188.3,648.2-1231.7,644.8z"></path>		<path class="st0" d="M-1231.7,656.8v6.7c0,0,22.5,0.6,21,27.1c6.7,0.1,6.7,0.1,6.7,0.1S-1197.6,661.4-1231.7,656.8z"></path>	</g>	<g>		<path class="st0" d="M-1067.8,895h-35.3V723.5h35.3V895z"></path>		<path class="st0" d="M-1045.4,895V723.5h46.1l50.7,108.6l50.5-108.6h46.3V895h-34.1V773l-50.2,107.5h-25l-50.5-107.5v122H-1045.4z   "></path>		<path class="st0" d="M-829.4,895V723.5h93.1c13.5,0,24.5,4.1,33,12.1c8.4,8.1,12.6,18.5,12.6,31.3c0,16.9-8,30.7-21.8,37.9   c8.9,2.8,15.9,8,21.1,15.8s7.8,17,7.8,27.6c0,13.9-4.5,25.1-13.6,33.7c-9.2,8.7-21.1,13-35.8,13H-829.4z M-794.1,792.4h46.3   c12.8,0,21.1-8.5,21.1-20.3c0-12.1-8.3-20.8-21.1-20.8h-46.3V792.4z M-794.1,821.4v46.1h48.2c7.3,0,13.3-2.3,17.8-6.7   c4.4-4.4,6.7-10,6.7-16.9c0-6.7-2.3-12.1-6.7-16.3c-4.5-4.2-10.5-6.2-17.8-6.2H-794.1z"></path>		<path class="st0" d="M-666.9,895V723.5h71.8c26.3,0,47.9,8,64.6,24c16.6,16,25,36.6,25,61.7c0,25.2-8.4,45.8-25,61.7   c-16.7,16-38.3,24-64.6,24H-666.9z M-541.8,809.3c0-17-4.9-30.7-14.7-41.2c-9.9-10.4-22.7-15.7-38.6-15.7h-36.5v113.6h36.5   c15.9,0,28.7-5.3,38.6-15.7C-546.7,840-541.8,826.3-541.8,809.3z"></path>		<path class="st0" d="M-435,895l75.1-171.5h36l75.2,171.5h-37l-15-35.1h-82.5l-15,35.1H-435z M-341.7,763.7l-29,67.4h57.7   L-341.7,763.7z"></path>		<path class="st0" d="M-234.2,881c-10-10.9-15.1-25-15.1-42.3c0-20.5,7.2-37,21.4-49.6c14.2-12.6,32.7-18.9,55.5-18.9   c16.9,0,32.1,3.1,45.6,9.5v114c0,17.5-6.2,31.7-18.8,42.6s-28.8,16.4-48.8,16.4c-20.6,0-36.8-6-48.7-17.8l18.3-18.4   c6.2,5.7,15.3,8.6,27.3,8.6c11.2,0,20.3-3,27.4-8.9c7.1-5.9,10.5-13.4,10.5-22.5v-6.9c-8.9,7.2-20.6,10.8-35.1,10.8   C-211,897.4-224.1,891.9-234.2,881z M-203.7,808.4c-6.8,7.1-10.3,16.4-10.3,27.8c0,9.9,2.6,18.3,7.9,24.9   c5.1,6.6,11.8,9.9,20.1,9.9c7.7,0,14-2.9,19-8.5c4.9-5.6,7.4-12.9,7.4-21.9v-40.2c-5.1-1.8-11-2.6-17.6-2.6   C-188,797.8-196.9,801.4-203.7,808.4z"></path>		<path class="st0" d="M-78.1,845.3c1.1,7.2,5.3,13,12.6,17.6c7.2,4.7,15.8,6.9,26,6.9c12.3,0,21.7-2.8,28.1-8.4l17.7,17.7   c-12.3,12.3-28.8,18.4-49.8,18.3c-20.6,0-37.3-6.1-50.1-18.2s-19.3-27.6-19.3-46.9c0-18.3,5.9-33.3,17.5-44.9   c11.6-11.6,26.6-17.3,45.1-17.3c18.4,0,33.5,6,45.1,17.8c11.6,12,17.3,27.4,17.3,46.3c0,3.5-0.2,7.1-0.7,11H-78.1z M-22,821.4   c0.1-7.1-2.2-12.8-7.1-17.3c-4.9-4.4-11.2-6.7-18.9-6.7s-14.2,2.3-19.9,6.7c-5.6,4.5-8.9,10.3-9.8,17.3H-22z"></path>		<path class="st0" d="M26.3,895V772.5h32.5V785c9.9-9.9,22.6-15,37.9-14.8c14.4,0,26.1,4.4,35.1,13.4c9,9,13.5,20.8,13.5,35.3V895   h-32.5v-69.9c0-8.3-2.4-15.1-7.2-20.3c-4.9-5.1-11.1-7.8-18.9-7.8c-8.1,0-14.8,2.9-20,8.7c-5.3,5.9-7.9,13.4-7.9,22.6V895H26.3z"></path>		<path class="st0" d="M272.7,880.1c-11.4,11.6-26.9,17.3-46.5,17.3c-20.1,0-36.5-5.9-49-17.7c-12.6-11.8-18.9-27.2-18.9-45.9   s6.2-34.1,18.8-45.9c12.6-11.8,28.8-17.7,48.9-17.7c19.3,0,34.9,5.7,46.8,17.3l-18.9,18.9c-6.2-5.7-14.7-8.6-25.5-8.6   c-10.2,0-18.4,3.3-25,10.2s-9.8,15.4-9.8,25.8s3.2,19,9.8,25.8s14.8,10.2,25,10.2c10.4,0,18.9-2.9,25.5-8.6L272.7,880.1z"></path>		<path class="st0" d="M289.3,921.2c3.2,2.3,6.8,3.5,10.8,3.5c9,0,16.2-6.2,21.3-18.7l5.1-11l-53.5-122.5h33.6l34.8,85.8l32.3-85.8   h33.6l-58.6,144c-10.2,24-25.4,36-45.6,36c-11.2,0-21.3-3.8-30.1-11.5L289.3,921.2z"></path>		<path class="st0" d="M482.7,895V723.5H518v142.6h88.6v29H482.7z"></path>		<path class="st0" d="M652.2,772.5h36v25.2h-36v57.5c0,8.5,5.4,14,13.5,14c5,0,9.3-1.7,12.9-4.9l16.1,15.7   c-6.8,10.9-20,17.3-34.9,17.3c-11.4,0-20.9-3.5-28.6-10.5c-7.8-7.1-11.6-16-11.6-27.2v-62h-22.1v-25.2h22.1V752l32.5-12.4V772.5z"></path>		<path class="st0" d="M712.6,880.7c-9.7-11.1-14.6-25.6-14.6-43.4c0-20,6.1-36.1,18.4-48.6c12.3-12.3,28.1-18.5,47.5-18.5   c10.8,0,19.5,1.4,26.2,4.3v-57.1H823V895h-32.9v-12.4c-3.7,4.2-9.3,7.8-16.7,10.5c-7.4,2.9-15.1,4.3-22.8,4.3   C735,897.4,722.3,891.8,712.6,880.7z M743.2,808.2c-6.6,7.1-9.9,16.2-9.9,27.3c0,10.3,2.8,18.7,8.3,25.1   c5.5,6.5,12.7,9.7,21.4,9.7c8,0,14.5-2.8,19.6-8.4c5-5.5,7.5-12.6,7.5-21.3V802c-6.3-3-13.5-4.4-21.3-4.4   C758.4,797.5,749.8,801.1,743.2,808.2z"></path>		<path class="st0" d="M839.4,895v-34.8h35.3V895H839.4z"></path>	</g></g><rect x="-1556.9" y="-100.3" class="st0" width="111" height="111"></rect><g>	<g>		<g>			<path class="st0" d="M12.1,1c0,0,11.5,6.3,11.9,11.2c0,1-0.1,6.1-13.2,7.7c4.8-6.6,4.8-6.6,4.8-6.6l2.1,3.3c0,0,2.7,0.4,4.1-2.6    c-4.1-5.7-4.1-5.7-4.1-5.7s-2.5-3.1-7.3,3.5c-3.1,4.9-8.2,12.3-8.2,12.3s1.1,0.8,9.6-0.8c1.9-0.5,1.9-0.5,1.9-0.5    s10.7-2,12.8-8.9c0-0.7,0.8-4.6-8.9-10.3C16.1,3.1,12.1,1,12.1,1z"></path>			<path class="st0" d="M10.8,24.8c0,0,5.4-0.4,9.9-3.1c2-1.1,2-1.1,2-1.1s6.5-3.7,5.8-6.8c-0.1-0.3-0.5-1.5-2.2-1.3    c-0.1-0.4-0.1-0.4-0.1-0.4s4.6-0.7,4,2.8C29.8,16,29.8,16,29.8,16l-0.5,0.8c0,0-0.4,0.5-0.5,0.6c-0.1,0.1-2.2,2.5-3.8,3.4    c2.6,4.5,2.6,4.5,2.6,4.5l-3.3,1.9l-2.6-4.3c0,0-4.8,2.2-7.1,2.4c-0.8,0.1-0.8,0.1-0.8,0.1S11.4,25.4,10.8,24.8z"></path>			<circle class="st0" cx="25.7" cy="6.2" r="1.5"></circle>			<path class="st0" d="M25.9,1.7v0.6c0,0,3.9,0.2,3.7,4.2c0.6,0,0.6,0,0.6,0S30.6,2.2,25.9,1.7z"></path>			<path class="st0" d="M25.9,2.7v0.6c0,0,2.9,0.1,2.7,3.3c0.6,0,0.6,0,0.6,0S29.5,3,25.9,2.7z"></path>			<path class="st0" d="M25.9,3.7v0.6c0,0,1.9,0.1,1.8,2.3c0.6,0,0.6,0,0.6,0S28.7,4.1,25.9,3.7z"></path>		</g>		<g>			<path class="st0" d="M39.6,23.6h-3V9.3h3V23.6z"></path>			<path class="st0" d="M41.5,23.6V9.3h3.9l4.2,9.1l4.2-9.1h3.9v14.4h-2.9V13.4l-4.2,9h-2.1l-4.2-9v10.2H41.5z"></path>			<path class="st0" d="M59.5,23.6V9.3h7.8c1.1,0,2.1,0.3,2.8,1c0.7,0.7,1.1,1.6,1.1,2.6c0,1.4-0.7,2.6-1.8,3.2    c0.7,0.2,1.3,0.7,1.8,1.3c0.4,0.7,0.7,1.4,0.7,2.3c0,1.2-0.4,2.1-1.1,2.8c-0.8,0.7-1.8,1.1-3,1.1H59.5z M62.5,15h3.9    c1.1,0,1.8-0.7,1.8-1.7c0-1-0.7-1.7-1.8-1.7h-3.9V15z M62.5,17.4v3.9h4c0.6,0,1.1-0.2,1.5-0.6c0.4-0.4,0.6-0.8,0.6-1.4    c0-0.6-0.2-1-0.6-1.4c-0.4-0.4-0.9-0.5-1.5-0.5H62.5z"></path>			<path class="st0" d="M73.1,23.6V9.3h6c2.2,0,4,0.7,5.4,2c1.4,1.3,2.1,3.1,2.1,5.2c0,2.1-0.7,3.8-2.1,5.2c-1.4,1.3-3.2,2-5.4,2    H73.1z M83.6,16.4c0-1.4-0.4-2.6-1.2-3.4c-0.8-0.9-1.9-1.3-3.2-1.3h-3.1v9.5h3.1c1.3,0,2.4-0.4,3.2-1.3    C83.2,19,83.6,17.9,83.6,16.4z"></path>			<path class="st0" d="M92.5,23.6l6.3-14.4h3l6.3,14.4H105l-1.3-2.9h-6.9l-1.3,2.9H92.5z M100.3,12.6l-2.4,5.6h4.8L100.3,12.6z"></path>			<path class="st0" d="M109.3,22.4c-0.8-0.9-1.3-2.1-1.3-3.5c0-1.7,0.6-3.1,1.8-4.2c1.2-1.1,2.7-1.6,4.6-1.6c1.4,0,2.7,0.3,3.8,0.8    v9.5c0,1.5-0.5,2.7-1.6,3.6c-1.1,0.9-2.4,1.4-4.1,1.4c-1.7,0-3.1-0.5-4.1-1.5l1.5-1.5c0.5,0.5,1.3,0.7,2.3,0.7    c0.9,0,1.7-0.3,2.3-0.7c0.6-0.5,0.9-1.1,0.9-1.9v-0.6c-0.7,0.6-1.7,0.9-2.9,0.9C111.3,23.8,110.2,23.4,109.3,22.4z M111.9,16.4    c-0.6,0.6-0.9,1.4-0.9,2.3c0,0.8,0.2,1.5,0.7,2.1c0.4,0.6,1,0.8,1.7,0.8c0.6,0,1.2-0.2,1.6-0.7c0.4-0.5,0.6-1.1,0.6-1.8v-3.4    c-0.4-0.2-0.9-0.2-1.5-0.2C113.2,15.5,112.5,15.8,111.9,16.4z"></path>			<path class="st0" d="M122.4,19.5c0.1,0.6,0.4,1.1,1.1,1.5c0.6,0.4,1.3,0.6,2.2,0.6c1,0,1.8-0.2,2.4-0.7l1.5,1.5    c-1,1-2.4,1.5-4.2,1.5c-1.7,0-3.1-0.5-4.2-1.5c-1.1-1-1.6-2.3-1.6-3.9c0-1.5,0.5-2.8,1.5-3.8c1-1,2.2-1.5,3.8-1.5    c1.5,0,2.8,0.5,3.8,1.5c1,1,1.5,2.3,1.5,3.9c0,0.3,0,0.6-0.1,0.9H122.4z M127.1,17.4c0-0.6-0.2-1.1-0.6-1.5    c-0.4-0.4-0.9-0.6-1.6-0.6s-1.2,0.2-1.7,0.6c-0.5,0.4-0.7,0.9-0.8,1.5H127.1z"></path>			<path class="st0" d="M131.1,23.6V13.4h2.7v1c0.8-0.8,1.9-1.3,3.2-1.2c1.2,0,2.2,0.4,2.9,1.1c0.8,0.8,1.1,1.7,1.1,3v6.4h-2.7v-5.8    c0-0.7-0.2-1.3-0.6-1.7c-0.4-0.4-0.9-0.7-1.6-0.7c-0.7,0-1.2,0.2-1.7,0.7c-0.4,0.5-0.7,1.1-0.7,1.9v5.6H131.1z"></path>			<path class="st0" d="M151.8,22.4c-1,1-2.3,1.5-3.9,1.5c-1.7,0-3.1-0.5-4.1-1.5c-1.1-1-1.6-2.3-1.6-3.8s0.5-2.9,1.6-3.8    c1.1-1,2.4-1.5,4.1-1.5c1.6,0,2.9,0.5,3.9,1.5l-1.6,1.6c-0.5-0.5-1.2-0.7-2.1-0.7c-0.9,0-1.5,0.3-2.1,0.9    c-0.6,0.6-0.8,1.3-0.8,2.2s0.3,1.6,0.8,2.2c0.6,0.6,1.2,0.9,2.1,0.9c0.9,0,1.6-0.2,2.1-0.7L151.8,22.4z"></path>			<path class="st0" d="M153.1,25.8c0.3,0.2,0.6,0.3,0.9,0.3c0.8,0,1.4-0.5,1.8-1.6l0.4-0.9l-4.5-10.3h2.8l2.9,7.2l2.7-7.2h2.8    l-4.9,12.1c-0.9,2-2.1,3-3.8,3c-0.9,0-1.8-0.3-2.5-1L153.1,25.8z"></path>			<path class="st0" d="M169.3,23.6V9.3h3v11.9h7.4v2.4H169.3z"></path>			<path class="st0" d="M183.5,13.4h3v2.1h-3v4.8c0,0.7,0.5,1.2,1.1,1.2c0.4,0,0.8-0.1,1.1-0.4l1.4,1.3c-0.6,0.9-1.7,1.5-2.9,1.5    c-1,0-1.8-0.3-2.4-0.9c-0.7-0.6-1-1.3-1-2.3v-5.2h-1.9v-2.1h1.9v-1.7l2.7-1V13.4z"></path>			<path class="st0" d="M188.6,22.4c-0.8-0.9-1.2-2.1-1.2-3.6c0-1.7,0.5-3,1.5-4.1c1-1,2.4-1.6,4-1.6c0.9,0,1.6,0.1,2.2,0.4V8.8h2.8    v14.9H195v-1c-0.3,0.4-0.8,0.7-1.4,0.9c-0.6,0.2-1.3,0.4-1.9,0.4C190.4,23.8,189.4,23.3,188.6,22.4z M191.1,16.3    c-0.6,0.6-0.8,1.4-0.8,2.3c0,0.9,0.2,1.6,0.7,2.1c0.5,0.5,1.1,0.8,1.8,0.8c0.7,0,1.2-0.2,1.6-0.7c0.4-0.5,0.6-1.1,0.6-1.8v-3.2    c-0.5-0.3-1.1-0.4-1.8-0.4C192.4,15.5,191.7,15.8,191.1,16.3z"></path>			<path class="st0" d="M199.2,23.6v-2.9h3v2.9H199.2z"></path>		</g>	</g>	<g>		<g>			<path class="st0" d="M201.1,6.8h-0.5v1.5h-0.2V6.8h-0.5V6.6h1.3V6.8z"></path>			<path class="st0" d="M202.1,7.9L202.1,7.9l0.5-1.3h0.3v1.6h-0.2V7l0,0l-0.5,1.2H202L201.5,7l0,0v1.3h-0.2V6.6h0.3L202.1,7.9z"></path>		</g>		<circle class="st1" cx="201.3" cy="7.4" r="2.2"></circle>	</g></g><g>	<g>		<path class="st0" d="M859.9,268.9h-6.4v17.4h-2.6v-17.4h-6.3v-2.1h15.4V268.9z"></path>		<path class="st0" d="M872.3,282.6L872.3,282.6l6.3-15.8h3.3v19.4h-2.6v-14.6l-0.1,0l-5.9,14.6h-1.8l-6.1-15.1l-0.1,0v15h-2.6   v-19.4h3.5L872.3,282.6z"></path>	</g>	<circle class="st2" cx="863.2" cy="276.6" r="25.8"></circle></g></svg>