<svg xmlns="http://www.w3.org/2000/svg" xmlns:xlink="http://www.w3.org/1999/xlink" width="250" zoomAndPan="magnify" viewBox="0 0 187.5 74.999997" height="100" preserveAspectRatio="xMidYMid meet" version="1.0"><defs><g/><clipPath id="3abb4dd4c6"><path d="M 1.347656 16.503906 L 33 16.503906 L 33 54.652344 L 1.347656 54.652344 Z M 1.347656 16.503906 " clip-rule="nonzero"/></clipPath><clipPath id="23bd70212c"><path d="M 14 20 L 39.496094 20 L 39.496094 52 L 14 52 Z M 14 20 " clip-rule="nonzero"/></clipPath></defs><g clip-path="url(#3abb4dd4c6)"><path fill="#0000ff" d="M 24.542969 52.722656 C 15.167969 52.722656 7.566406 45.125 7.566406 35.75 C 7.566406 26.371094 15.167969 18.773438 24.542969 18.773438 C 27.582031 18.773438 30.4375 19.578125 32.90625 20.980469 C 29.566406 18.191406 25.269531 16.511719 20.582031 16.511719 C 9.957031 16.511719 1.34375 25.125 1.34375 35.75 C 1.34375 46.371094 9.957031 54.984375 20.582031 54.984375 C 25.269531 54.984375 29.566406 53.304688 32.90625 50.515625 C 30.4375 51.917969 27.582031 52.722656 24.542969 52.722656 " fill-opacity="1" fill-rule="nonzero"/></g><g clip-path="url(#23bd70212c)"><path fill="#008000" d="M 21.207031 49.304688 C 28.691406 49.304688 34.761719 43.234375 34.761719 35.75 C 34.761719 28.261719 28.691406 22.191406 21.207031 22.191406 C 18.777344 22.191406 16.5 22.835938 14.527344 23.953125 C 17.191406 21.726562 20.625 20.386719 24.371094 20.386719 C 32.855469 20.386719 39.734375 27.261719 39.734375 35.75 C 39.734375 44.234375 32.855469 51.113281 24.371094 51.113281 C 20.625 51.113281 17.191406 49.769531 14.527344 47.542969 C 16.5 48.660156 18.777344 49.304688 21.207031 49.304688 " fill-opacity="1" fill-rule="nonzero"/></g><g fill="#0a2540" fill-opacity="1"><g transform="translate(38.547273, 48.346073)"><g><path d="M 2.640625 -22.328125 L 7.8125 -22.328125 L 7.8125 0 L 2.640625 0 Z M 2.640625 -22.328125 "/></g></g></g><g fill="#0a2540" fill-opacity="1"><g transform="translate(49.012784, 48.346073)"><g><path d="M 2.640625 -22.328125 L 12.796875 -22.328125 C 15.222656 -22.328125 17.363281 -21.863281 19.21875 -20.9375 C 21.082031 -20.019531 22.53125 -18.71875 23.5625 -17.03125 C 24.59375 -15.351562 25.109375 -13.398438 25.109375 -11.171875 C 25.109375 -8.929688 24.59375 -6.972656 23.5625 -5.296875 C 22.53125 -3.617188 21.082031 -2.316406 19.21875 -1.390625 C 17.363281 -0.460938 15.222656 0 12.796875 0 L 2.640625 0 Z M 12.546875 -4.25 C 14.773438 -4.25 16.550781 -4.867188 17.875 -6.109375 C 19.207031 -7.359375 19.875 -9.046875 19.875 -11.171875 C 19.875 -13.296875 19.207031 -14.976562 17.875 -16.21875 C 16.550781 -17.46875 14.773438 -18.09375 12.546875 -18.09375 L 7.8125 -18.09375 L 7.8125 -4.25 Z M 12.546875 -4.25 "/></g></g></g><g fill="#0a2540" fill-opacity="1"><g transform="translate(75.368009, 48.346073)"><g><path d="M 9.984375 0.390625 C 8.222656 0.390625 6.515625 0.148438 4.859375 -0.328125 C 3.210938 -0.804688 1.890625 -1.429688 0.890625 -2.203125 L 2.640625 -6.09375 C 3.597656 -5.394531 4.738281 -4.832031 6.0625 -4.40625 C 7.382812 -3.976562 8.703125 -3.765625 10.015625 -3.765625 C 11.484375 -3.765625 12.566406 -3.984375 13.265625 -4.421875 C 13.972656 -4.859375 14.328125 -5.4375 14.328125 -6.15625 C 14.328125 -6.6875 14.117188 -7.128906 13.703125 -7.484375 C 13.285156 -7.835938 12.753906 -8.117188 12.109375 -8.328125 C 11.460938 -8.535156 10.582031 -8.769531 9.46875 -9.03125 C 7.769531 -9.4375 6.378906 -9.835938 5.296875 -10.234375 C 4.210938 -10.640625 3.28125 -11.289062 2.5 -12.1875 C 1.726562 -13.082031 1.34375 -14.273438 1.34375 -15.765625 C 1.34375 -17.054688 1.691406 -18.226562 2.390625 -19.28125 C 3.097656 -20.332031 4.15625 -21.164062 5.5625 -21.78125 C 6.976562 -22.40625 8.707031 -22.71875 10.75 -22.71875 C 12.175781 -22.71875 13.566406 -22.546875 14.921875 -22.203125 C 16.285156 -21.867188 17.476562 -21.378906 18.5 -20.734375 L 16.90625 -16.8125 C 14.84375 -17.976562 12.78125 -18.5625 10.71875 -18.5625 C 9.269531 -18.5625 8.203125 -18.328125 7.515625 -17.859375 C 6.828125 -17.398438 6.484375 -16.785156 6.484375 -16.015625 C 6.484375 -15.253906 6.878906 -14.6875 7.671875 -14.3125 C 8.472656 -13.9375 9.691406 -13.566406 11.328125 -13.203125 C 13.023438 -12.804688 14.414062 -12.40625 15.5 -12 C 16.59375 -11.59375 17.523438 -10.953125 18.296875 -10.078125 C 19.078125 -9.210938 19.46875 -8.035156 19.46875 -6.546875 C 19.46875 -5.265625 19.109375 -4.097656 18.390625 -3.046875 C 17.679688 -1.992188 16.613281 -1.15625 15.1875 -0.53125 C 13.757812 0.0820312 12.023438 0.390625 9.984375 0.390625 Z M 9.984375 0.390625 "/></g></g></g><g fill="#0a2540" fill-opacity="1"><g transform="translate(95.724707, 48.346073)"><g><path d="M 19.046875 -11.609375 C 20.328125 -11.203125 21.328125 -10.523438 22.046875 -9.578125 C 22.765625 -8.640625 23.125 -7.476562 23.125 -6.09375 C 23.125 -4.132812 22.363281 -2.628906 20.84375 -1.578125 C 19.320312 -0.523438 17.109375 0 14.203125 0 L 2.640625 0 L 2.640625 -22.328125 L 13.5625 -22.328125 C 16.28125 -22.328125 18.367188 -21.804688 19.828125 -20.765625 C 21.285156 -19.722656 22.015625 -18.3125 22.015625 -16.53125 C 22.015625 -15.445312 21.753906 -14.476562 21.234375 -13.625 C 20.710938 -12.769531 19.984375 -12.097656 19.046875 -11.609375 Z M 7.78125 -18.4375 L 7.78125 -13.171875 L 12.921875 -13.171875 C 14.203125 -13.171875 15.171875 -13.394531 15.828125 -13.84375 C 16.484375 -14.289062 16.8125 -14.953125 16.8125 -15.828125 C 16.8125 -16.703125 16.484375 -17.351562 15.828125 -17.78125 C 15.171875 -18.21875 14.203125 -18.4375 12.921875 -18.4375 Z M 13.8125 -3.890625 C 15.175781 -3.890625 16.203125 -4.113281 16.890625 -4.5625 C 17.585938 -5.007812 17.9375 -5.703125 17.9375 -6.640625 C 17.9375 -8.484375 16.5625 -9.40625 13.8125 -9.40625 L 7.78125 -9.40625 L 7.78125 -3.890625 Z M 13.8125 -3.890625 "/></g></g></g><g fill="#064e3b" fill-opacity="1"><g transform="translate(123.412355, 47.282992)"><g><path d="M 4.109375 0.125 C 3.398438 0.125 2.785156 -0.0351562 2.265625 -0.359375 C 1.753906 -0.679688 1.359375 -1.164062 1.078125 -1.8125 C 0.804688 -2.46875 0.671875 -3.273438 0.671875 -4.234375 C 0.671875 -5.191406 0.835938 -5.992188 1.171875 -6.640625 C 1.503906 -7.296875 1.96875 -7.78125 2.5625 -8.09375 C 3.15625 -8.414062 3.847656 -8.578125 4.640625 -8.578125 C 5.453125 -8.578125 6.140625 -8.425781 6.703125 -8.125 C 7.273438 -7.820312 7.675781 -7.375 7.90625 -6.78125 L 6.6875 -6.046875 L 6.546875 -6.046875 C 6.367188 -6.421875 6.125 -6.695312 5.8125 -6.875 C 5.5 -7.050781 5.109375 -7.140625 4.640625 -7.140625 C 3.910156 -7.140625 3.351562 -6.90625 2.96875 -6.4375 C 2.582031 -5.976562 2.390625 -5.242188 2.390625 -4.234375 C 2.390625 -3.203125 2.566406 -2.457031 2.921875 -2 C 3.285156 -1.539062 3.820312 -1.3125 4.53125 -1.3125 C 5.132812 -1.3125 5.582031 -1.445312 5.875 -1.71875 C 6.164062 -1.988281 6.3125 -2.394531 6.3125 -2.9375 L 6.3125 -3.3125 L 4.3125 -3.3125 L 4.3125 -4.671875 L 7.96875 -4.671875 L 7.96875 0 L 6.375 0 L 6.375 -1.140625 L 6.25 -1.15625 C 6.070312 -0.75 5.804688 -0.429688 5.453125 -0.203125 C 5.109375 0.015625 4.660156 0.125 4.109375 0.125 Z M 4.109375 0.125 "/></g></g></g><g fill="#064e3b" fill-opacity="1"><g transform="translate(134.621244, 47.282992)"><g><path d="M 2.765625 -8.453125 L 2.765625 -1.40625 L 6.5625 -1.40625 L 6.5625 0 L 1.09375 0 L 1.09375 -8.453125 Z M 2.765625 -8.453125 "/></g></g></g><g fill="#064e3b" fill-opacity="1"><g transform="translate(143.858801, 47.282992)"><g><path d="M 4.609375 0.125 C 3.835938 0.125 3.15625 -0.03125 2.5625 -0.34375 C 1.96875 -0.664062 1.503906 -1.148438 1.171875 -1.796875 C 0.835938 -2.453125 0.671875 -3.265625 0.671875 -4.234375 C 0.671875 -5.191406 0.835938 -5.992188 1.171875 -6.640625 C 1.503906 -7.296875 1.96875 -7.78125 2.5625 -8.09375 C 3.15625 -8.414062 3.835938 -8.578125 4.609375 -8.578125 C 5.378906 -8.578125 6.0625 -8.421875 6.65625 -8.109375 C 7.25 -7.796875 7.710938 -7.3125 8.046875 -6.65625 C 8.378906 -6 8.546875 -5.191406 8.546875 -4.234375 C 8.546875 -3.265625 8.378906 -2.453125 8.046875 -1.796875 C 7.710938 -1.148438 7.25 -0.664062 6.65625 -0.34375 C 6.0625 -0.03125 5.378906 0.125 4.609375 0.125 Z M 4.609375 -1.328125 C 5.328125 -1.328125 5.875 -1.554688 6.25 -2.015625 C 6.625 -2.484375 6.8125 -3.222656 6.8125 -4.234375 C 6.8125 -5.242188 6.625 -5.976562 6.25 -6.4375 C 5.875 -6.894531 5.328125 -7.125 4.609375 -7.125 C 3.890625 -7.125 3.335938 -6.894531 2.953125 -6.4375 C 2.578125 -5.976562 2.390625 -5.242188 2.390625 -4.234375 C 2.390625 -3.222656 2.578125 -2.484375 2.953125 -2.015625 C 3.335938 -1.554688 3.890625 -1.328125 4.609375 -1.328125 Z M 4.609375 -1.328125 "/></g></g></g><g fill="#064e3b" fill-opacity="1"><g transform="translate(155.460799, 47.282992)"><g><path d="M 1.09375 0 L 1.09375 -8.453125 L 4.703125 -8.453125 C 5.222656 -8.453125 5.660156 -8.367188 6.015625 -8.203125 C 6.378906 -8.046875 6.65625 -7.816406 6.84375 -7.515625 C 7.03125 -7.210938 7.125 -6.851562 7.125 -6.4375 C 7.125 -6.0625 7.03125 -5.726562 6.84375 -5.4375 C 6.664062 -5.15625 6.410156 -4.929688 6.078125 -4.765625 L 6.078125 -4.640625 C 6.609375 -4.503906 7.015625 -4.25 7.296875 -3.875 C 7.585938 -3.507812 7.734375 -3.0625 7.734375 -2.53125 C 7.734375 -1.71875 7.488281 -1.09375 7 -0.65625 C 6.519531 -0.21875 5.796875 0 4.828125 0 Z M 4.359375 -5.078125 C 5.140625 -5.078125 5.53125 -5.429688 5.53125 -6.140625 C 5.53125 -6.492188 5.429688 -6.757812 5.234375 -6.9375 C 5.046875 -7.113281 4.753906 -7.203125 4.359375 -7.203125 L 2.765625 -7.203125 L 2.765625 -5.078125 Z M 4.671875 -1.328125 C 5.585938 -1.328125 6.046875 -1.742188 6.046875 -2.578125 C 6.046875 -3.421875 5.585938 -3.84375 4.671875 -3.84375 L 2.765625 -3.84375 L 2.765625 -1.328125 Z M 4.671875 -1.328125 "/></g></g></g><g fill="#064e3b" fill-opacity="1"><g transform="translate(166.120485, 47.282992)"><g><path d="M 8.109375 0 L 6.359375 0 L 5.71875 -1.953125 L 2.484375 -1.953125 L 1.84375 0 L 0.125 0 L 3.046875 -8.453125 L 5.1875 -8.453125 Z M 4.015625 -6.6875 L 2.9375 -3.359375 L 5.25 -3.359375 L 4.15625 -6.6875 Z M 4.015625 -6.6875 "/></g></g></g><g fill="#064e3b" fill-opacity="1"><g transform="translate(176.751275, 47.282992)"><g><path d="M 2.765625 -8.453125 L 2.765625 -1.40625 L 6.5625 -1.40625 L 6.5625 0 L 1.09375 0 L 1.09375 -8.453125 Z M 2.765625 -8.453125 "/></g></g></g></svg>